# xmcd CD database file
#
# Track frame offsets:
#	150
#	15072
#	26155
#	39715
#	60680
#	72432
#	83552
#	98079
#	116585
#	141372
#	156187
#	166477
#	185722
#	205255
#	222885
#	238250
#	261955
#	277015
#
# Disc length: 3773 seconds
#
# Revision: 0
# Processed by: cddbd v1.4PL0 Copyright (c) Steve Scherf et al.
# Submitted via: CDex 1.50Beta7
#
DISCID=090ebb12
DTITLE=Harry Arnold - Guldkorn
DYEAR=1900
DGENRE=Jazz
TTITLE0=Stand By
TTITLE1=Crazy Rhythm
TTITLE2=Sunday
TTITLE3=Laura
TTITLE4=Sermonette
TTITLE5=On The Street Where You Live
TTITLE6=Dedicated to George
TTITLE7=The Midnight Sun Never Sets
TTITLE8=Count 'em
TTITLE9=Room 608
TTITLE10=Our Love is Here to Stay
TTITLE11=Pennies From Heaven
TTITLE12=Sister Sadie
TTITLE13=On The Sunny Side of The Street
TTITLE14=I Remember You
TTITLE15=Doodlin'
TTITLE16=Valley Stream Special
TTITLE17=Stand By (This is Harry)
EXTD=
EXTT0=
EXTT1=
EXTT2=
EXTT3=
EXTT4=
EXTT5=
EXTT6=
EXTT7=
EXTT8=
EXTT9=
EXTT10=
EXTT11=
EXTT12=
EXTT13=
EXTT14=
EXTT15=
EXTT16=
EXTT17=
PLAYORDER=
